<?xml version="1.0" encoding="utf-8" ?><svg xmlns="http://www.w3.org/2000/svg" xmlns:xlink="http://www.w3.org/1999/xlink" width="1024" height="1024" viewBox="0 0 1024 1024"><path fill="white" d="M0 0L1024 0L1024 1024L0 1024L0 0Z"/><path fill="#0B0D10" d="M217.732 661.409C225.258 661.448 235.809 659.584 243.508 658.574L290.916 652.04C307.015 649.85 322.418 647.433 338.751 648.485C348.645 649.115 358.396 651.177 367.698 654.606C375.697 657.497 383.602 661.263 391.002 665.441C402.985 672.206 415.292 678.68 427.894 684.233L427.027 685.632C398.984 684.424 388.848 695.357 364.235 701.829C342.312 707.594 306.788 693.401 285.551 686.244C271.76 681.544 257.995 676.768 244.257 671.916C234.961 668.732 225.599 665.868 216.374 662.487C214.735 661.359 216.8 661.468 217.732 661.409Z"/><path fill="#2B2B2C" d="M216.374 662.487C214.735 661.359 216.8 661.468 217.732 661.409C217.447 661.728 216.74 662.214 216.374 662.487Z"/><path fill="#0B0D10" d="M597.113 684.344C617.765 674.954 637.138 662.41 657.692 654.197C683.848 643.745 715.203 649.177 742.056 653.086C764.127 656.058 787.094 659.912 809.183 661.992C800.576 665.275 791.355 668.286 782.551 671.089C752.697 680.594 723.607 693.106 693.185 700.617C670.304 706.266 652.75 701.329 632.24 691.239C625.481 687.923 612.822 685.986 604.764 685.429C602.108 685.489 599.451 685.515 596.795 685.508C596.396 685.508 595.198 685.573 594.889 685.264L594.921 685.228L594.975 685.264C596.108 684.575 595.736 684.77 597.113 684.344Z"/><path fill="#0B0D10" d="M597.113 684.344C599.196 685.404 601.217 684.575 604.764 685.429C602.108 685.489 599.451 685.515 596.795 685.508C596.396 685.508 595.198 685.573 594.889 685.264L594.921 685.228L594.975 685.264C596.108 684.575 595.736 684.77 597.113 684.344Z"/><path fill="#0B0D10" d="M171.766 532.05C177.921 534.243 186.592 538.224 192.837 540.811C204.563 545.694 216.363 550.397 228.233 554.918C241.167 559.959 254.164 565.066 267.179 569.886C306.03 584.273 331.931 611.567 359.7 641.118C344.951 637.362 329.568 637.311 314.462 637.73C301.42 638.091 287.527 638.914 275.392 633.289C267.172 629.478 261.496 622.612 255.147 616.422C251.791 613.151 248.517 609.755 245.204 606.42C231.275 592.635 217.474 578.723 203.801 564.685C195.625 556.319 178.514 540.265 171.766 532.05Z"/><path fill="#0B0D10" d="M851.969 532.502L852.334 532.799L852.102 533.563C826.414 558.147 801.784 584.033 776.578 609.115C770.061 615.6 762.101 624.454 754.861 629.801C749.953 633.416 744.298 635.885 738.311 637.028C730.432 638.503 718.367 638.117 710.185 637.817C693.678 637.211 681.866 637.502 665.711 641.395L665.362 641.354L665.271 640.812C678.599 627.74 692.309 611.798 706.687 600.117C719.956 589.337 738.375 577.324 754.273 570.931C763.94 567.043 774.711 563.777 784.748 559.737L851.969 532.502Z"/><path fill="#0B0D10" d="M569.27 256.452C574.99 258.537 591.385 266.619 597.47 269.693C623.8 282.995 653.785 294.889 676.776 313.486C702.845 334.573 707.701 353.953 712.01 384.819C713.516 395.288 714.912 405.772 716.199 416.271C714.818 415.11 712.818 412.969 711.58 411.587C702.839 401.832 692.056 395.034 681.9 386.877C674.9 381.151 668.299 374.953 662.144 368.325C647.072 352.241 629.99 327.477 615.861 309.854C600.141 290.245 585.674 274.804 569.27 256.452Z"/><path fill="#0B0D10" d="M309.284 416.763C312.58 397.409 313.06 371.885 319.152 353.454C331.701 315.49 368.644 298.293 401.911 281.965L452.318 257.499L453.004 259.069C436.51 275.561 419.471 296.264 404.841 314.589C385.34 339.014 368.461 367.098 343.628 386.798C330.071 397.552 320.195 402.779 309.284 416.763Z"/><path fill="#0B0D10" d="M296.488 745.406C322.176 735.048 347.868 722.496 373.578 711.989C384.248 707.628 393.461 702.218 404.921 699.575C418.988 696.332 429.979 696.26 444.189 698.619C456.55 700.67 465.442 704.691 477.032 708.74C484.084 711.203 492.966 713.637 500.258 715.595L500.508 716.578C472.547 721.492 461.425 736.259 435.783 745.163C425.517 748.636 414.811 750.638 403.984 751.111C392.109 751.737 378.254 750.288 366.233 749.713C343.083 748.604 319.593 746.506 296.488 745.406Z"/><path fill="#0B0D10" d="M521.688 716.75C528.156 714.806 537.859 712.261 543.924 710.05C557.546 705.086 566.098 701.089 580.864 698.5C594.163 696.166 607.806 696.672 620.897 699.984C631.615 702.668 641.21 708.121 651.355 712.462L691.986 729.677C703.35 734.614 713.929 739.575 725.496 744.28C729.884 745.474 724.082 745.497 723.385 745.5L673.348 748.929C643.586 751.071 615.17 754.604 586.425 744.071C559.807 734.316 551.025 719.579 521.688 716.75Z"/><path fill="#2B2B2C" d="M725.496 744.28C729.884 745.474 724.082 745.497 723.385 745.5L725.496 744.28Z"/><path fill="#0B0D10" d="M196.557 409.833C199.193 411.27 222.436 435.264 225.834 438.804C241.921 455.566 262.106 474.245 274.732 493.677C279.494 501.006 285.448 518.467 288.411 527.214C295.459 548.023 300.009 562.064 310.998 581.283C305.453 578.422 299.327 573.296 293.66 569.941C274.149 558.391 246.069 550.535 237.347 527.015C222.977 488.27 210.744 448.684 196.557 409.833Z"/><path fill="#0B0D10" d="M826.952 410.478L827.309 411.2C817.639 437.09 809.55 464.098 800.204 490.151C795.312 503.558 791.768 518.2 785.541 531.031C776.765 549.11 756.004 556.851 739.283 565.57C730.713 570.038 723.32 574.94 715.46 580.478L715.256 580.273C715.261 580.041 725.364 558.164 726.821 554.416C737.09 528.001 742.279 499.718 761.857 478.227C774.008 464.888 784.831 452.925 797.076 440.521C806.915 430.388 816.874 420.373 826.952 410.478Z"/><path fill="#0B0D10" d="M300.791 290.632C300.992 289.97 301.186 289.111 301.771 288.706C301.835 288.714 301.894 288.713 301.909 288.778C302.275 290.296 301.722 295.424 301.566 296.69C302.78 326.523 300.93 357.534 301.538 387.361C301.998 409.952 297.776 426.811 288.987 447.289C283.372 460.371 281.38 476.133 281.45 490.388C273.648 473.955 262.5 461.708 255.331 445.294C250.797 434.915 248.843 421.644 250.857 410.389C253.973 392.965 263.082 376.18 269.914 359.941C280.019 336.731 291.011 313.963 300.791 290.632Z"/><path fill="#0B0D10" d="M300.791 290.632C300.992 289.97 301.186 289.111 301.771 288.706C301.835 288.714 301.894 288.713 301.909 288.778C302.275 290.296 301.722 295.424 301.566 296.69C301.316 294.672 301.575 292.286 300.791 290.632Z"/><path fill="#0B0D10" d="M722.927 300.557C722.704 298.811 722.284 289.209 722.714 287.708L722.712 287.708L722.811 287.731C723.041 288.101 723.551 289.648 723.624 290.127L754.041 359.46C760.795 374.896 771.602 396.953 774.492 412.965C779.56 441.043 756.286 465.784 744.56 489.169C744.352 476.113 742.214 462.811 737.347 450.685C732.752 439.237 727.948 429.976 725.982 417.591C722.979 398.677 723.509 378.973 723.421 359.83L722.927 300.557Z"/><path fill="#68636C" d="M722.927 300.557C722.704 298.811 722.284 289.209 722.714 287.708L722.712 287.708L722.811 287.731C723.041 288.101 723.551 289.648 723.624 290.127C722.658 292.23 723.166 297.487 722.927 300.557Z"/><path fill="#0B0D10" d="M366.603 513.644L367.304 513.638C371.153 534.72 380.504 557.291 389.503 576.644C393.766 585.812 402.029 600.443 404.954 609.824C412.271 633.289 405.998 654.36 424.147 675.079C385.14 655.908 356.367 626.769 354.458 580.839C353.515 558.151 362.991 535.831 366.603 513.644Z"/><path fill="#0B0D10" d="M657.775 512.333C659.205 518.435 660.194 525.314 661.869 531.188C671.274 564.182 676.368 591.99 658.862 623.708C646.106 646.82 633.126 656.493 611.023 669.921L601.072 675.458C618.504 656.957 613.536 631.548 620.134 609.563C622.402 602.006 629.506 589.305 633.21 581.76C644.656 558.439 652.672 537.794 657.775 512.333Z"/><path fill="#0B0D10" d="M352.789 441.374C353.04 442.576 352.736 444.382 352.516 445.65C351.082 453.103 351.569 460.572 351.266 468.075C350.462 488.044 352.868 507.854 353.256 527.726C353.4 535.147 350.949 544.99 349.17 552.327C343.521 575.639 342.626 591.423 351.409 614.102C345.541 608.525 341.708 604.371 336.683 598.174C328.257 588.051 317.92 572.149 313.925 559.611C310.94 550.105 310.366 540.006 312.255 530.223C316.064 509.541 342.035 461.961 352.789 441.374Z"/><path fill="#0B0D10" d="M645.357 365.916C651.957 372.044 656.483 378.727 664.598 385.582C684.122 402.073 707.741 414.176 721.06 436.78C738.533 466.433 734.931 494.534 727.145 525.862L724.921 532.767C716.852 507.527 708.516 492.641 696.872 468.533C686.59 447.244 676.442 425.996 665.913 404.792C661.125 395.148 648.629 375.001 645.357 365.916Z"/><path fill="#0B0D10" d="M672.828 446.285L674.279 444.9C685.544 466.724 709.946 511.033 713.302 533.647C714.588 542.165 713.889 550.866 711.258 559.069C705.138 578.293 687.516 601.412 672.852 615.205C681.949 595.708 682.39 575.393 676.666 554.961C670.617 533.366 672.156 518.726 673.382 496.964C673.957 486.736 674.178 476.493 674.045 466.25C673.996 460.604 673.818 451.756 672.828 446.285Z"/><path fill="#0B0D10" d="M379.827 366.534C379.574 368.806 362.261 398.768 359.463 404.523C349.478 425.065 338.769 445.865 328.949 466.537C318.677 488.159 307.366 509.77 299.988 532.535L298.633 526.401C295.145 510.992 292.548 499.633 292.071 483.784C291.21 455.147 303.314 431.003 325.23 412.842C335.935 403.971 347.28 396.048 358.214 387.461C365.832 381.478 373.121 373.608 379.827 366.534Z"/><path fill="#0B0D10" d="M408.939 583.997C410.956 585.308 413.415 587.403 415.161 589.144C440.08 613.992 467.141 639.621 481.402 672.409C486.712 684.618 489.858 698.204 501.42 706.052C483.492 703.781 460.753 693.354 447.956 680.529C437.264 669.814 424.88 657.45 419.577 643.057C415.897 633.067 415.501 621.53 413.909 611.042C412.539 601.864 410.571 593.046 408.939 583.997Z"/><path fill="#0B0D10" d="M615.747 583.927C616.312 586.433 612.515 600.311 612.118 603.933C608.854 633.707 607.155 649.086 585.666 671.36C566.159 691.579 552.454 700.398 523.91 705.996L523.904 705.377C534.184 699.15 536.996 687.582 541.398 677.122C544.716 669.032 548.758 661.258 553.473 653.894C563.855 637.539 578.273 621.809 591.469 607.663C597.943 600.724 608.472 589.814 615.747 583.927Z"/><path fill="#0B0D10" d="M513.617 719.569C516.89 722.345 526.163 726.049 530.594 728.987C545.449 738.837 556.087 749.891 567.153 763.569C563.242 765.527 559.288 767.401 555.295 769.187C547.018 755.949 527.01 737.796 512.345 731.753C494.144 739.745 481.391 753.67 469.657 769.198C465.922 767.611 461.71 765.401 457.799 763.666C470.179 744.53 492.994 728.662 513.617 719.569Z"/><path fill="#0B0D10" d="M672.828 446.285C672.762 445.81 672.128 442.531 672.737 442.225C673.244 442.499 674.04 444.38 674.279 444.9L672.828 446.285Z"/><path fill="#0B0D10" d="M452.318 257.499C453.692 256.907 456.428 255.836 453.876 258.236L453.004 259.069L452.318 257.499Z"/><path fill="#0B0D10" d="M427.894 684.233C428.378 684.4 429.467 684.658 429.671 685.225C429.3 685.623 427.589 685.599 427.027 685.632L427.894 684.233Z"/><path fill="#858383" d="M500.258 715.595L501.213 715.589C501.771 715.63 502.446 715.587 502.887 715.999C502.907 716.409 502.114 716.316 501.936 716.326L500.508 716.578L500.258 715.595Z"/><path fill="#2B2B2C" d="M500.258 715.595L501.213 715.589L501.936 716.326L500.508 716.578L500.258 715.595Z"/><path fill="#68636C" d="M366.603 513.644C366.671 513.055 366.616 512.704 367.059 512.303C367.434 512.414 367.298 513.364 367.304 513.638L366.603 513.644Z"/></svg>