<?xml version="1.0" encoding="utf-8" ?><svg xmlns="http://www.w3.org/2000/svg" viewBox="263 320 818 125" fill="currentColor"><path d="M805.083 322.763L859.389 322.786C884.655 322.757 923.048 319.174 932.307 352.144C937.663 371.214 930.103 389.975 913.125 400.524C918.622 413.395 927.818 430.712 934.164 443.57L920.227 443.597L897.319 443.556C891.347 432.798 885.308 419.89 879.784 408.748C866.676 408.921 853.284 408.783 840.152 408.786C840.079 420.377 840.064 431.968 840.107 443.56L805.123 443.44C804.788 403.215 804.775 362.988 805.083 322.763ZM840.048 352.697C851.599 352.692 919.665 346.495 895.616 375.323C886.876 381.557 852.582 379.253 840.005 379.205C839.967 370.369 839.982 361.533 840.048 352.697Z" fill-rule="evenodd"/><path d="M314.636 321.254C314.745 321.234 314.854 321.214 314.963 321.195C341.285 319.61 376.748 321.007 388.418 349.793C390.485 354.892 391.074 359.19 391.829 364.167L357.943 364.042C353.737 351.361 341.942 350.227 330.179 349.643C324.036 349.338 300.304 348.873 301.263 359.035C302.365 370.713 332.634 369.484 340.723 370.564C347.317 371.445 354.733 371.318 361.379 372.81C390.174 374.97 408.221 406.239 389.448 430.243C379.392 443.101 356.231 445.795 339.445 446.719C322.369 448.189 290.772 445.807 277.233 433.987C267.042 425.091 264.749 415.771 263.607 403.187L298.957 403.297C301.41 420.305 323.73 419.123 336.816 419.636C343.659 419.905 354.392 419.219 359.362 414.157C365.729 407.672 356.525 401.135 350.535 399.954C323.628 393.456 269.174 403.156 265.725 363.794C263.019 332.909 289.323 323.284 314.636 321.254Z"/><path d="M538.134 322.836L652.441 322.783L652.44 352.627C633.509 372.526 610.34 393.857 590.467 413.504L653.613 413.459C653.645 419.464 654.11 437.829 653.305 442.792C651.806 443.899 649.426 443.543 647.391 443.519L540.063 443.336C540.075 435.957 539.976 428.578 539.764 421.201L584.693 377.072C592.83 368.982 600.107 361.185 608.538 353.287C585.219 353.056 561.55 353.284 538.204 353.305L538.134 322.836Z"/><path d="M993.949 322.514L1029.29 322.694C1046.23 362.789 1064.78 403.553 1081.32 443.629L1044.58 443.469C1035.31 422.311 1025.6 397.792 1016.77 376.289L1011.62 363.46C1007.74 371.695 1003.4 383.207 999.862 391.867C992.775 409.102 985.777 426.373 978.867 443.68C966.913 443.635 954.958 443.524 943.005 443.347C944.785 437.138 953.372 419.252 956.427 411.693C968.418 382.025 982.449 352.328 993.949 322.514Z"/><path d="M711.982 322.783L746.469 322.811C753.857 337.548 759.783 353.222 766.298 368.4C777.283 393.315 787.975 418.359 798.372 443.526L762.422 443.611C753.108 423.915 742.983 397.17 734.074 376.283C732.457 372.256 730.813 368.239 729.143 364.233C718.553 390.516 706.756 417.29 695.848 443.595C683.942 443.633 672.036 443.585 660.13 443.453C677.71 403.358 694.995 363.133 711.982 322.783Z"/><path d="M445.972 322.47C457.574 322.464 469.175 322.546 480.776 322.716C496.152 360.853 515.402 406.211 532.673 443.428L496.678 443.517C486.886 421.345 477.938 399.074 468.259 376.941C466.438 372.64 464.828 368.714 462.631 364.576L429.616 443.42L394.443 443.37L445.972 322.47Z"/></svg>
